<mxfile host="drawio-plugin" modified="2021-11-10T07:58:16.703Z" agent="5.0 (X11; Linux x86_64) AppleWebKit/537.36 (KHTML, like Gecko) Chrome/87.0.4280.141 Safari/537.36" etag="HEJc-dD8JTEz25MEf2dk" version="14.7.4" type="embed" pages="5"><diagram id="AE4FOjLIIjP9BR-ICS6r" name="layout"><mxGraphModel dx="1383" dy="720" grid="1" gridSize="10" guides="1" tooltips="1" connect="1" arrows="1" fold="1" page="1" pageScale="1" pageWidth="850" pageHeight="1100" math="0" shadow="0"><root><mxCell id="0"/><mxCell id="1" parent="0"/><mxCell id="2" value="navbar" style="rounded=0;whiteSpace=wrap;html=1;" parent="1" vertex="1"><mxGeometry x="40" y="80" width="760" height="80" as="geometry"/></mxCell><mxCell id="3" value="search" style="rounded=0;whiteSpace=wrap;html=1;fillColor=#fff2cc;strokeColor=#d6b656;" parent="1" vertex="1"><mxGeometry x="480" y="100" width="70" height="40" as="geometry"/></mxCell><mxCell id="4" value="notifications" style="rounded=0;whiteSpace=wrap;html=1;fillColor=#dae8fc;strokeColor=#6c8ebf;" parent="1" vertex="1"><mxGeometry x="600" y="100" width="80" height="40" as="geometry"/></mxCell><mxCell id="5" value="help" style="rounded=0;whiteSpace=wrap;html=1;fillColor=#dae8fc;strokeColor=#6c8ebf;" parent="1" vertex="1"><mxGeometry x="680" y="100" width="40" height="40" as="geometry"/></mxCell><mxCell id="6" value="setings" style="rounded=0;whiteSpace=wrap;html=1;fillColor=#dae8fc;strokeColor=#6c8ebf;" parent="1" vertex="1"><mxGeometry x="720" y="100" width="40" height="40" as="geometry"/></mxCell><mxCell id="7" value="user" style="rounded=0;whiteSpace=wrap;html=1;fillColor=#fff2cc;strokeColor=#d6b656;" parent="1" vertex="1"><mxGeometry x="760" y="100" width="40" height="40" as="geometry"/></mxCell><mxCell id="8" value="logout" style="rounded=0;whiteSpace=wrap;html=1;fillColor=#e1d5e7;strokeColor=#9673a6;" parent="1" vertex="1"><mxGeometry x="760" y="140" width="40" height="40" as="geometry"/></mxCell><mxCell id="9" value="logo" style="rounded=0;whiteSpace=wrap;html=1;fillColor=#dae8fc;strokeColor=#6c8ebf;" parent="1" vertex="1"><mxGeometry x="40" y="100" width="80" height="40" as="geometry"/></mxCell><mxCell id="10" value="projects" style="rounded=0;whiteSpace=wrap;html=1;fillColor=#dae8fc;strokeColor=#6c8ebf;" parent="1" vertex="1"><mxGeometry x="120" y="100" width="80" height="40" as="geometry"/></mxCell><mxCell id="11" value="users" style="rounded=0;whiteSpace=wrap;html=1;fillColor=#dae8fc;strokeColor=#6c8ebf;" parent="1" vertex="1"><mxGeometry x="200" y="100" width="80" height="40" as="geometry"/></mxCell><mxCell id="12" value="sidebar" style="rounded=0;whiteSpace=wrap;html=1;fillColor=#d5e8d4;strokeColor=#82b366;" parent="1" vertex="1"><mxGeometry x="40" y="270" width="200" height="330" as="geometry"/></mxCell><mxCell id="13" value="content" style="rounded=0;whiteSpace=wrap;html=1;" parent="1" vertex="1"><mxGeometry x="240" y="270" width="560" height="330" as="geometry"/></mxCell><mxCell id="14" value="create issue" style="rounded=0;whiteSpace=wrap;html=1;fillColor=#dae8fc;strokeColor=#6c8ebf;" parent="1" vertex="1"><mxGeometry x="280" y="100" width="80" height="40" as="geometry"/></mxCell><mxCell id="15" value="board" style="rounded=0;whiteSpace=wrap;html=1;fillColor=#dae8fc;strokeColor=#6c8ebf;" parent="1" vertex="1"><mxGeometry x="60" y="380" width="60" height="40" as="geometry"/></mxCell><mxCell id="16" value="backlog" style="rounded=0;whiteSpace=wrap;html=1;fillColor=#dae8fc;strokeColor=#6c8ebf;" parent="1" vertex="1"><mxGeometry x="60" y="330" width="60" height="40" as="geometry"/></mxCell><mxCell id="17" value="image" style="rounded=0;whiteSpace=wrap;html=1;" parent="1" vertex="1"><mxGeometry x="50" y="280" width="50" height="30" as="geometry"/></mxCell><mxCell id="18" value="project name" style="rounded=0;whiteSpace=wrap;html=1;" parent="1" vertex="1"><mxGeometry x="110" y="280" width="50" height="30" as="geometry"/></mxCell><mxCell id="31" value="search" style="rounded=0;whiteSpace=wrap;html=1;fillColor=#e1d5e7;strokeColor=#9673a6;" parent="1" vertex="1"><mxGeometry x="550" y="100" width="50" height="40" as="geometry"/></mxCell><mxCell id="33" value="layout" style="rounded=0;whiteSpace=wrap;html=1;fillColor=#ffff88;strokeColor=#36393d;fontStyle=1" parent="1" vertex="1"><mxGeometry x="40" y="40" width="120" height="40" as="geometry"/></mxCell><mxCell id="40" value="header" style="rounded=0;whiteSpace=wrap;html=1;fillColor=#d5e8d4;strokeColor=#82b366;" parent="1" vertex="1"><mxGeometry x="40" y="230" width="760" height="40" as="geometry"/></mxCell><mxCell id="41" value="footer" style="rounded=0;whiteSpace=wrap;html=1;fillColor=#d5e8d4;strokeColor=#82b366;" parent="1" vertex="1"><mxGeometry x="40" y="600" width="760" height="40" as="geometry"/></mxCell><mxCell id="42" value="sidebar" style="rounded=0;whiteSpace=wrap;html=1;fillColor=#d5e8d4;strokeColor=#82b366;" parent="1" vertex="1"><mxGeometry x="40" y="720" width="200" height="320" as="geometry"/></mxCell><mxCell id="43" value="another content" style="rounded=0;whiteSpace=wrap;html=1;" parent="1" vertex="1"><mxGeometry x="240" y="720" width="560" height="320" as="geometry"/></mxCell><mxCell id="44" value="board" style="rounded=0;whiteSpace=wrap;html=1;fillColor=#dae8fc;strokeColor=#6c8ebf;" parent="1" vertex="1"><mxGeometry x="60" y="830" width="60" height="40" as="geometry"/></mxCell><mxCell id="45" value="backlog" style="rounded=0;whiteSpace=wrap;html=1;fillColor=#dae8fc;strokeColor=#6c8ebf;" parent="1" vertex="1"><mxGeometry x="60" y="780" width="60" height="40" as="geometry"/></mxCell><mxCell id="46" value="image" style="rounded=0;whiteSpace=wrap;html=1;" parent="1" vertex="1"><mxGeometry x="50" y="730" width="50" height="30" as="geometry"/></mxCell><mxCell id="47" value="project name" style="rounded=0;whiteSpace=wrap;html=1;" parent="1" vertex="1"><mxGeometry x="110" y="730" width="50" height="30" as="geometry"/></mxCell><mxCell id="48" value="header" style="rounded=0;whiteSpace=wrap;html=1;fillColor=#d5e8d4;strokeColor=#82b366;" parent="1" vertex="1"><mxGeometry x="40" y="680" width="760" height="40" as="geometry"/></mxCell><mxCell id="49" value="footer" style="rounded=0;whiteSpace=wrap;html=1;fillColor=#d5e8d4;strokeColor=#82b366;" parent="1" vertex="1"><mxGeometry x="40" y="1040" width="760" height="40" as="geometry"/></mxCell></root></mxGraphModel></diagram><diagram id="L0vSd1opFdLHpcMbHw0s" name="add form"><mxGraphModel dx="1383" dy="720" grid="1" gridSize="10" guides="1" tooltips="1" connect="1" arrows="1" fold="1" page="1" pageScale="1" pageWidth="850" pageHeight="1100" math="0" shadow="0"><root><mxCell id="jGoNuqEtruFSjyPVqyAC-0"/><mxCell id="jGoNuqEtruFSjyPVqyAC-1" parent="jGoNuqEtruFSjyPVqyAC-0"/><mxCell id="jGoNuqEtruFSjyPVqyAC-2" value="add task form" style="rounded=0;whiteSpace=wrap;html=1;" parent="jGoNuqEtruFSjyPVqyAC-1" vertex="1"><mxGeometry x="40" y="80" width="560" height="320" as="geometry"/></mxCell><mxCell id="jGoNuqEtruFSjyPVqyAC-3" value="project" style="rounded=0;whiteSpace=wrap;html=1;fillColor=#ffe6cc;strokeColor=#d79b00;" parent="jGoNuqEtruFSjyPVqyAC-1" vertex="1"><mxGeometry x="80" y="160" width="120" height="40" as="geometry"/></mxCell><mxCell id="jGoNuqEtruFSjyPVqyAC-4" value="issue type" style="rounded=0;whiteSpace=wrap;html=1;fillColor=#ffe6cc;strokeColor=#d79b00;" parent="jGoNuqEtruFSjyPVqyAC-1" vertex="1"><mxGeometry x="80" y="210" width="120" height="40" as="geometry"/></mxCell><mxCell id="jGoNuqEtruFSjyPVqyAC-5" value="summary" style="rounded=0;whiteSpace=wrap;html=1;fillColor=#fff2cc;strokeColor=#d6b656;" parent="jGoNuqEtruFSjyPVqyAC-1" vertex="1"><mxGeometry x="80" y="260" width="120" height="40" as="geometry"/></mxCell><mxCell id="jGoNuqEtruFSjyPVqyAC-6" value="description" style="rounded=0;whiteSpace=wrap;html=1;fillColor=#fff2cc;strokeColor=#d6b656;" parent="jGoNuqEtruFSjyPVqyAC-1" vertex="1"><mxGeometry x="80" y="310" width="120" height="40" as="geometry"/></mxCell><mxCell id="jGoNuqEtruFSjyPVqyAC-7" value="assignee" style="rounded=0;whiteSpace=wrap;html=1;fillColor=#ffe6cc;strokeColor=#d79b00;" parent="jGoNuqEtruFSjyPVqyAC-1" vertex="1"><mxGeometry x="400" y="160" width="120" height="40" as="geometry"/></mxCell><mxCell id="jGoNuqEtruFSjyPVqyAC-8" value="priority" style="rounded=0;whiteSpace=wrap;html=1;fillColor=#fff2cc;strokeColor=#d6b656;" parent="jGoNuqEtruFSjyPVqyAC-1" vertex="1"><mxGeometry x="240" y="110" width="120" height="40" as="geometry"/></mxCell><mxCell id="jGoNuqEtruFSjyPVqyAC-9" value="sprint" style="rounded=0;whiteSpace=wrap;html=1;fillColor=#ffe6cc;strokeColor=#d79b00;" parent="jGoNuqEtruFSjyPVqyAC-1" vertex="1"><mxGeometry x="240" y="160" width="120" height="40" as="geometry"/></mxCell><mxCell id="jGoNuqEtruFSjyPVqyAC-10" value="story points" style="rounded=0;whiteSpace=wrap;html=1;fillColor=#fff2cc;strokeColor=#d6b656;" parent="jGoNuqEtruFSjyPVqyAC-1" vertex="1"><mxGeometry x="400" y="110" width="120" height="40" as="geometry"/></mxCell><mxCell id="jGoNuqEtruFSjyPVqyAC-11" value="cancel" style="rounded=0;whiteSpace=wrap;html=1;fillColor=#dae8fc;strokeColor=#6c8ebf;" parent="jGoNuqEtruFSjyPVqyAC-1" vertex="1"><mxGeometry x="400" y="320" width="80" height="40" as="geometry"/></mxCell><mxCell id="jGoNuqEtruFSjyPVqyAC-12" value="save" style="rounded=0;whiteSpace=wrap;html=1;fillColor=#e1d5e7;strokeColor=#9673a6;" parent="jGoNuqEtruFSjyPVqyAC-1" vertex="1"><mxGeometry x="480" y="320" width="80" height="40" as="geometry"/></mxCell><mxCell id="jGoNuqEtruFSjyPVqyAC-13" value="form header" style="rounded=0;whiteSpace=wrap;html=1;fillColor=#f5f5f5;strokeColor=#666666;fontColor=#333333;" parent="jGoNuqEtruFSjyPVqyAC-1" vertex="1"><mxGeometry x="80" y="110" width="120" height="40" as="geometry"/></mxCell><mxCell id="jGoNuqEtruFSjyPVqyAC-14" value="add task form" style="rounded=0;whiteSpace=wrap;html=1;fillColor=#ffff88;strokeColor=#36393d;fontStyle=1" parent="jGoNuqEtruFSjyPVqyAC-1" vertex="1"><mxGeometry x="40" y="40" width="120" height="40" as="geometry"/></mxCell></root></mxGraphModel></diagram><diagram id="uFufA5nkt8WYxg7-TiU2" name="list"><mxGraphModel dx="1383" dy="720" grid="1" gridSize="10" guides="1" tooltips="1" connect="1" arrows="1" fold="1" page="1" pageScale="1" pageWidth="850" pageHeight="1100" math="0" shadow="0"><root><mxCell id="aHpRpBWvCmMN589ioaOt-0"/><mxCell id="aHpRpBWvCmMN589ioaOt-1" parent="aHpRpBWvCmMN589ioaOt-0"/><mxCell id="Jc7eJkqOf3BZYncAF8w8-6" value="item name" style="rounded=0;whiteSpace=wrap;html=1;fillColor=#f5f5f5;strokeColor=#666666;fontColor=#333333;" vertex="1" parent="aHpRpBWvCmMN589ioaOt-1"><mxGeometry x="40" y="160" width="80" height="40" as="geometry"/></mxCell><mxCell id="Jc7eJkqOf3BZYncAF8w8-7" value="photo" style="rounded=0;whiteSpace=wrap;html=1;fillColor=#f5f5f5;strokeColor=#666666;fontColor=#333333;" vertex="1" parent="aHpRpBWvCmMN589ioaOt-1"><mxGeometry x="120" y="160" width="80" height="40" as="geometry"/></mxCell><mxCell id="Jc7eJkqOf3BZYncAF8w8-8" value="edit" style="rounded=0;whiteSpace=wrap;html=1;fillColor=#e1d5e7;strokeColor=#9673a6;" vertex="1" parent="aHpRpBWvCmMN589ioaOt-1"><mxGeometry x="240" y="160" width="40" height="40" as="geometry"/></mxCell><mxCell id="Jc7eJkqOf3BZYncAF8w8-9" value="delete" style="rounded=0;whiteSpace=wrap;html=1;fillColor=#e1d5e7;strokeColor=#9673a6;" vertex="1" parent="aHpRpBWvCmMN589ioaOt-1"><mxGeometry x="280" y="160" width="40" height="40" as="geometry"/></mxCell><mxCell id="Jc7eJkqOf3BZYncAF8w8-11" value="add" style="rounded=0;whiteSpace=wrap;html=1;fillColor=#e1d5e7;strokeColor=#9673a6;" vertex="1" parent="aHpRpBWvCmMN589ioaOt-1"><mxGeometry x="160" y="80" width="40" height="40" as="geometry"/></mxCell><mxCell id="Jc7eJkqOf3BZYncAF8w8-12" value="items" style="rounded=0;whiteSpace=wrap;html=1;fillColor=#f5f5f5;strokeColor=#666666;fontColor=#333333;" vertex="1" parent="aHpRpBWvCmMN589ioaOt-1"><mxGeometry x="40" y="80" width="80" height="40" as="geometry"/></mxCell><mxCell id="LYAbM307RhFPtKOtf0xp-0" value="item list" style="rounded=0;whiteSpace=wrap;html=1;fillColor=#ffff88;strokeColor=#36393d;fontStyle=1" vertex="1" parent="aHpRpBWvCmMN589ioaOt-1"><mxGeometry x="40" y="40" width="120" height="40" as="geometry"/></mxCell></root></mxGraphModel></diagram><diagram id="gzLtSxaaM1tWz8J2fCbx" name="item info"><mxGraphModel dx="1383" dy="720" grid="1" gridSize="10" guides="1" tooltips="1" connect="1" arrows="1" fold="1" page="1" pageScale="1" pageWidth="850" pageHeight="1100" math="0" shadow="0"><root><mxCell id="x2jJjEfuJ2BlAausdQzn-0"/><mxCell id="x2jJjEfuJ2BlAausdQzn-1" parent="x2jJjEfuJ2BlAausdQzn-0"/><mxCell id="kpgCZH_g2R2q4clRxb3G-0" value="item name" style="rounded=0;whiteSpace=wrap;html=1;fillColor=#f5f5f5;strokeColor=#666666;fontColor=#333333;" vertex="1" parent="x2jJjEfuJ2BlAausdQzn-1"><mxGeometry x="40" y="160" width="80" height="40" as="geometry"/></mxCell><mxCell id="kpgCZH_g2R2q4clRxb3G-1" value="photo" style="rounded=0;whiteSpace=wrap;html=1;fillColor=#f5f5f5;strokeColor=#666666;fontColor=#333333;" vertex="1" parent="x2jJjEfuJ2BlAausdQzn-1"><mxGeometry x="40" y="200" width="80" height="40" as="geometry"/></mxCell><mxCell id="kpgCZH_g2R2q4clRxb3G-5" value="item info" style="rounded=0;whiteSpace=wrap;html=1;fillColor=#f5f5f5;strokeColor=#666666;fontColor=#333333;" vertex="1" parent="x2jJjEfuJ2BlAausdQzn-1"><mxGeometry x="40" y="80" width="80" height="40" as="geometry"/></mxCell><mxCell id="afBynqwhQIZQ4Xm6vNI--0" value="" style="group" vertex="1" connectable="0" parent="x2jJjEfuJ2BlAausdQzn-1"><mxGeometry x="40" y="280" width="240" height="40" as="geometry"/></mxCell><mxCell id="kpgCZH_g2R2q4clRxb3G-2" value="edit" style="rounded=0;whiteSpace=wrap;html=1;fillColor=#e1d5e7;strokeColor=#9673a6;" vertex="1" parent="afBynqwhQIZQ4Xm6vNI--0"><mxGeometry x="79.99999999999999" width="79.99999999999999" height="40" as="geometry"/></mxCell><mxCell id="kpgCZH_g2R2q4clRxb3G-3" value="delete" style="rounded=0;whiteSpace=wrap;html=1;fillColor=#e1d5e7;strokeColor=#9673a6;" vertex="1" parent="afBynqwhQIZQ4Xm6vNI--0"><mxGeometry x="159.99999999999997" width="79.99999999999999" height="40" as="geometry"/></mxCell><mxCell id="kpgCZH_g2R2q4clRxb3G-8" value="cancel" style="rounded=0;whiteSpace=wrap;html=1;fillColor=#dae8fc;strokeColor=#6c8ebf;" vertex="1" parent="afBynqwhQIZQ4Xm6vNI--0"><mxGeometry width="79.99999999999999" height="40" as="geometry"/></mxCell><mxCell id="oa167_ghwmIOtR32iqyy-0" value="item info" style="rounded=0;whiteSpace=wrap;html=1;fillColor=#ffff88;strokeColor=#36393d;fontStyle=1" vertex="1" parent="x2jJjEfuJ2BlAausdQzn-1"><mxGeometry x="40" y="40" width="120" height="40" as="geometry"/></mxCell></root></mxGraphModel></diagram><diagram id="mtAzH9L3CKkY78Z6fSfX" name="legend"><mxGraphModel dx="533" dy="720" grid="1" gridSize="10" guides="1" tooltips="1" connect="1" arrows="1" fold="1" page="1" pageScale="1" pageWidth="850" pageHeight="1100" math="0" shadow="0"><root><mxCell id="2qQddINoyS8TLPZjmfkf-0"/><mxCell id="2qQddINoyS8TLPZjmfkf-1" parent="2qQddINoyS8TLPZjmfkf-0"/><mxCell id="2qQddINoyS8TLPZjmfkf-2" value="navigation button" style="rounded=0;whiteSpace=wrap;html=1;fillColor=#dae8fc;strokeColor=#6c8ebf;" vertex="1" parent="2qQddINoyS8TLPZjmfkf-1"><mxGeometry x="880" y="120" width="80" height="40" as="geometry"/></mxCell><mxCell id="2qQddINoyS8TLPZjmfkf-3" value="submit button" style="rounded=0;whiteSpace=wrap;html=1;fillColor=#e1d5e7;strokeColor=#9673a6;" vertex="1" parent="2qQddINoyS8TLPZjmfkf-1"><mxGeometry x="880" y="160" width="80" height="40" as="geometry"/></mxCell><mxCell id="2qQddINoyS8TLPZjmfkf-4" value="input" style="rounded=0;whiteSpace=wrap;html=1;fillColor=#fff2cc;strokeColor=#d6b656;" vertex="1" parent="2qQddINoyS8TLPZjmfkf-1"><mxGeometry x="880" y="200" width="80" height="40" as="geometry"/></mxCell><mxCell id="2qQddINoyS8TLPZjmfkf-5" value="complex input" style="rounded=0;whiteSpace=wrap;html=1;fillColor=#ffe6cc;strokeColor=#d79b00;" vertex="1" parent="2qQddINoyS8TLPZjmfkf-1"><mxGeometry x="880" y="240" width="80" height="40" as="geometry"/></mxCell><mxCell id="2qQddINoyS8TLPZjmfkf-6" value="legend" style="rounded=0;whiteSpace=wrap;html=1;" vertex="1" parent="2qQddINoyS8TLPZjmfkf-1"><mxGeometry x="880" y="40" width="80" height="40" as="geometry"/></mxCell><mxCell id="x40WQKS4z5tN_d5Lp4fp-0" value="label" style="rounded=0;whiteSpace=wrap;html=1;fillColor=#f5f5f5;strokeColor=#666666;fontColor=#333333;" vertex="1" parent="2qQddINoyS8TLPZjmfkf-1"><mxGeometry x="880" y="80" width="80" height="40" as="geometry"/></mxCell></root></mxGraphModel></diagram></mxfile>